<?xml version="1.0" encoding="UTF-8"?>
<svg width="24px" height="24px" viewBox="0 0 24 24" version="1.1" xmlns="http://www.w3.org/2000/svg" xmlns:xlink="http://www.w3.org/1999/xlink">
    <title>Fire Icon</title>
    <g stroke="none" stroke-width="1" fill="none" fill-rule="evenodd">
        <path d="M12,22 C7.581722,22 4,18.418278 4,14 C4,11.1666667 5.33333333,8.33333333 8,5.5 C9.33333333,4.16666667 10.6666667,3.16666667 12,2.5 C13.3333333,3.16666667 14.6666667,4.16666667 16,5.5 C18.6666667,8.33333333 20,11.1666667 20,14 C20,18.418278 16.418278,22 12,22 Z" stroke="#FF4D2E" stroke-width="2"></path>
        <path d="M12,18 C10.3431458,18 9,16.6568542 9,15 C9,13.6666667 9.66666667,12.3333333 11,11 C11.6666667,10.3333333 12.3333333,9.83333333 13,9.5 C13.6666667,9.83333333 14.3333333,10.3333333 15,11 C16.3333333,12.3333333 17,13.6666667 17,15 C17,16.6568542 15.6568542,18 14,18 L12,18 Z" fill="#FF4D2E"></path>
    </g>
</svg>
